<?xml version="1.0" encoding="utf-8"?>
<!-- Generator: Adobe Illustrator 16.0.0, SVG Export Plug-In . SVG Version: 6.00 Build 0)  -->
<!DOCTYPE svg PUBLIC "-//W3C//DTD SVG 1.1//EN" "http://www.w3.org/Graphics/SVG/1.1/DTD/svg11.dtd">
<svg version="1.1" id="Layer_1" xmlns="http://www.w3.org/2000/svg" xmlns:xlink="http://www.w3.org/1999/xlink" x="0px" y="0px"
	 width="64px" height="33px" viewBox="148 78.86 64 33" enable-background="new 148 78.86 64 33" xml:space="preserve">
<g>
	<title>background</title>
	<line id="canvas_background_1_" fill="none" x1="-1" y1="203.097" x2="-1" y2="-0.65"/>
</g>
<title>Layer 1</title>
<g id="Ebene_1">
	<g id="svg_41">
		<path id="svg_42" fill="#005AA0" d="M165.193,92.299v-13.02h6.17v32.163h-6.17V98.468h-11.023v12.975H148V79.279h6.169v13.02
			H165.193L165.193,92.299z"/>
		<path id="svg_43" fill="#005AA0" d="M195.703,79.294c0.274,0,0.535,0.109,0.728,0.302l1.996,1.995
			c0.191,0.192,0.3,0.454,0.3,0.727v1.575l-13.525,21.377h13.525v6.173h-18.597c-0.272,0-0.535-0.108-0.727-0.303l-1.995-1.993
			c-0.192-0.193-0.301-0.455-0.301-0.728v-1.897l13.32-21.054H177.24v-6.172L195.703,79.294L195.703,79.294L195.703,79.294z"/>
		<path id="svg_44" fill="#005AA0" d="M212,111.442h-6.17V79.279H212V111.442z"/>
	</g>
</g>
<g id="Ebene_2" display="none">
	<path id="svg_45" display="inline" fill="#BDC3C5" d="M617.723,184.067v-30.98h14.688v76.544h-14.688v-30.874H591.49v30.874
		h-14.682v-76.544h14.682v30.98H617.723L617.723,184.067z"/>
	<path id="svg_46" display="inline" fill="#BDC3C5" d="M562.119,184.067v-30.98h14.689v76.544h-14.689v-30.874h-26.232v30.874
		h-14.682v-76.544h14.682v30.98H562.119L562.119,184.067z"/>
	<path id="svg_47" display="inline" fill="#BDC3C5" d="M151.121,286.125v-30.979h14.689v76.544h-14.689v-30.874H124.89v30.874
		h-14.682v-76.544h14.682v30.979H151.121L151.121,286.125z"/>
	<path id="svg_48" display="inline" fill="#BDC3C5" d="M95.516,286.125v-30.979h14.69v76.544h-14.69v-30.874H69.284v30.874H54.603
		v-76.544h14.681v30.979H95.516L95.516,286.125z"/>
	<path id="svg_49" display="inline" fill="#BDC3C5" d="M39.914,286.125v-30.979h14.689v76.544H39.914v-30.874H13.68v30.874H-1
		v-76.544h14.68v30.979H39.914L39.914,286.125z"/>
	<path id="svg_50" display="inline" fill="#BDC3C5" d="M2139.74,285.846v-30.98h14.689v76.543h-14.689v-30.873h-26.232v30.873
		h-14.682v-76.543h14.682v30.98H2139.74L2139.74,285.846z"/>
	<path id="svg_51" display="inline" fill="#BDC3C5" d="M2084.137,285.846v-30.98h14.688v76.543h-14.688v-30.873h-26.232v30.873
		h-14.682v-76.543h14.682v30.98H2084.137L2084.137,285.846z"/>
	<path id="svg_52" display="inline" fill="#BDC3C5" d="M2028.533,285.846v-30.98h14.689v76.543h-14.689v-30.873h-26.23v30.873
		h-14.684v-76.543h14.684v30.98H2028.533L2028.533,285.846z"/>
	<path id="svg_53" display="inline" fill="#BDC3C5" d="M673.324,107.523v-30.98h14.691v76.544h-14.691v-30.874h-26.23v30.874
		h-14.682V76.543h14.682v30.98H673.324z"/>
	<path id="svg_54" display="inline" fill="#BDC3C5" d="M673.324,30.978V0h14.691v76.543h-14.691V45.669h-26.23v30.874h-14.682V0
		h14.682v30.979L673.324,30.978L673.324,30.978z"/>
	<path id="svg_55" display="inline" fill="#BDC3C5" d="M673.324,439.215v-30.98h14.691v76.543h-14.691v-30.873h-26.23v30.873
		h-14.682v-76.543h14.682v30.98H673.324z"/>
	<path id="svg_56" display="inline" fill="#BDC3C5" d="M673.324,362.671v-30.98h14.691v76.544h-14.691v-30.875h-26.23v30.875
		h-14.682V331.69h14.682v30.98H673.324z"/>
</g>
</svg>
