<?xml version="1.0" encoding="utf-8"?>
<!-- Generator: Adobe Illustrator 16.0.0, SVG Export Plug-In . SVG Version: 6.00 Build 0)  -->
<!DOCTYPE svg PUBLIC "-//W3C//DTD SVG 1.1//EN" "http://www.w3.org/Graphics/SVG/1.1/DTD/svg11.dtd">
<svg version="1.1" id="Layer_1" xmlns="http://www.w3.org/2000/svg" xmlns:xlink="http://www.w3.org/1999/xlink" x="0px" y="0px"
	 width="360px" height="190.72px" viewBox="731.601 5.502 360 190.72" enable-background="new 731.601 5.502 360 190.72"
	 xml:space="preserve">
<g>
	<title>background</title>
	<line id="canvas_background_1_" fill="none" x1="-1" y1="203.097" x2="-1" y2="-0.65"/>
</g>
<title>Layer 1</title>
<g id="Ebene_1">
	<g id="svg_41">
		<path id="svg_42" fill="#005AA0" d="M829.68,83.858V11.56h34.263v178.604H829.68v-72.048h-61.214v72.048h-34.258V11.56h34.258
			v72.298H829.68L829.68,83.858z"/>
		<path id="svg_43" fill="#005AA0" d="M999.107,11.642c1.518,0,2.973,0.604,4.041,1.677l11.08,11.079
			c1.068,1.068,1.67,2.523,1.67,4.036v8.743l-75.106,118.709h75.106v34.277H912.624c-1.513,0-2.967-0.603-4.037-1.673
			l-11.079-11.078c-1.069-1.074-1.672-2.524-1.672-4.041v-10.535L969.81,45.921h-73.232V11.643L999.107,11.642L999.107,11.642
			L999.107,11.642z"/>
		<path id="svg_44" fill="#005AA0" d="M1089.601,190.164h-34.258V11.56h34.258V190.164z"/>
	</g>
</g>
<g id="Ebene_2" display="none">
	<path id="svg_45" display="inline" fill="#BDC3C5" d="M617.722,184.067v-30.98h14.689v76.544h-14.689v-30.874H591.49v30.874
		h-14.682v-76.544h14.682v30.98H617.722L617.722,184.067z"/>
	<path id="svg_46" display="inline" fill="#BDC3C5" d="M562.119,184.067v-30.98h14.689v76.544h-14.689v-30.874h-26.232v30.874
		h-14.681v-76.544h14.681v30.98H562.119L562.119,184.067z"/>
	<path id="svg_47" display="inline" fill="#BDC3C5" d="M151.121,286.125v-30.979h14.689v76.544h-14.689v-30.874h-26.231v30.874
		h-14.682v-76.544h14.682v30.979H151.121L151.121,286.125z"/>
	<path id="svg_48" display="inline" fill="#BDC3C5" d="M95.516,286.125v-30.979h14.69v76.544h-14.69v-30.874H69.284v30.874H54.603
		v-76.544h14.681v30.979H95.516L95.516,286.125z"/>
	<path id="svg_49" display="inline" fill="#BDC3C5" d="M39.914,286.125v-30.979h14.689v76.544H39.914v-30.874H13.68v30.874H-1
		v-76.544H13.68v30.979H39.914L39.914,286.125z"/>
	<path id="svg_50" display="inline" fill="#BDC3C5" d="M2139.741,285.846v-30.98h14.689v76.543h-14.689v-30.873h-26.233v30.873
		h-14.681v-76.543h14.681v30.98H2139.741L2139.741,285.846z"/>
	<path id="svg_51" display="inline" fill="#BDC3C5" d="M2084.136,285.846v-30.98h14.689v76.543h-14.689v-30.873h-26.231v30.873
		h-14.682v-76.543h14.682v30.98H2084.136L2084.136,285.846z"/>
	<path id="svg_52" display="inline" fill="#BDC3C5" d="M2028.533,285.846v-30.98h14.69v76.543h-14.69v-30.873h-26.231v30.873
		h-14.682v-76.543h14.682v30.98H2028.533L2028.533,285.846z"/>
	<path id="svg_53" display="inline" fill="#BDC3C5" d="M673.325,107.523v-30.98h14.69v76.544h-14.69v-30.874h-26.232v30.874h-14.681
		V76.543h14.681v30.98H673.325z"/>
	<path id="svg_54" display="inline" fill="#BDC3C5" d="M673.325,30.978V0h14.69v76.543h-14.69V45.669h-26.232v30.874h-14.681V0
		h14.681v30.979H673.325z"/>
	<path id="svg_55" display="inline" fill="#BDC3C5" d="M673.325,439.214v-30.98h14.69v76.543h-14.69v-30.873h-26.232v30.873h-14.681
		v-76.543h14.681v30.98H673.325z"/>
	<path id="svg_56" display="inline" fill="#BDC3C5" d="M673.325,362.67v-30.98h14.69v76.544h-14.69v-30.875h-26.232v30.875h-14.681
		v-76.544h14.681v30.98H673.325z"/>
</g>
</svg>
